# xmcd
#
# Track frame offsets: 
#        150
#        15073
#        29173
#        45759
#        60810
#        71054
#        82677
#        96011
#        106059
#        130918
#        143896
#        167079
#        179678
#        192239
#        207076
#        217541
#        230015
#        255606
#
# Disc length: 3572 seconds
#
# Revision: 0
# Processed by: cddbd v1.5.2PL0 Copyright (c) Steve Scherf et al.
# Submitted via: ExactAudioCopy v0.95b4
#
DISCID=e10df212
DTITLE=Mick Jagger and The Red Devils - Blues Sessions
DYEAR=1992
DGENRE=Blues
TTITLE0=Blues With a Feeling (take 4)
TTITLE1=You Better Watch Yourself (take 2)
TTITLE2=Still a Fool (take 3)
TTITLE3=Checkin' Up on My Baby (take 3)
TTITLE4=One Way Out (take 2)
TTITLE5=Talke To Me Baby (take 2)
TTITLE6=Evil (take 4)
TTITLE7=That Ain't Your Business (take 3)
TTITLE8=Shake 'em On Down (take 1)
TTITLE9=Don't Go No Further (take 3)
TTITLE10=Dream Girl Blues (take 3)
TTITLE11=40 Days 40 Nights (take 1)
TTITLE12=Mean Old World (soundcheck)
TTITLE13=Blues With a Feeling (take 5)
TTITLE14=One Way Out (take 1)
TTITLE15=Evil (take 3)
TTITLE16=Dream Girl Blues (take 1)
TTITLE17=40 Days 40 Nights (take 2)
EXTD=
EXTT0=
EXTT1=
EXTT2=
EXTT3=
EXTT4=
EXTT5=
EXTT6=
EXTT7=
EXTT8=
EXTT9=
EXTT10=
EXTT11=
EXTT12=
EXTT13=
EXTT14=
EXTT15=
EXTT16=
EXTT17=
PLAYORDER=
